<?xml version="1.0" encoding="UTF-8"?>
<!DOCTYPE svg PUBLIC "-//W3C//DTD SVG 1.1//EN" "http://www.w3.org/Graphics/SVG/1.1/DTD/svg11.dtd">
<!-- Creator: CorelDRAW -->
<svg xmlns="http://www.w3.org/2000/svg" xml:space="preserve" width="2279px" height="1438px" version="1.1" style="shape-rendering:geometricPrecision; text-rendering:geometricPrecision; image-rendering:optimizeQuality; fill-rule:evenodd; clip-rule:evenodd"
viewBox="0 0 631.66 398.6"
 xmlns:xlink="http://www.w3.org/1999/xlink"
 xmlns:xodm="http://www.corel.com/coreldraw/odm/2003">
 <defs>
  <style type="text/css">
   <![CDATA[
    .fil0 {fill:white}
    .fil1 {fill:white;fill-rule:nonzero}
   ]]>
  </style>
 </defs>
 <g id="Layer_x0020_1">
  <metadata id="CorelCorpID_0Corel-Layer"/>
  <g id="_105553905438048">
   <g>
    <g>
     <path class="fil0" d="M631.66 293.49l0 46.44 -150.63 0 0 -32.01c0,0 51.85,-11.3 51.85,-38.77 0,-27.47 -82.41,-15.37 -68.52,-68.07 9.11,-34.59 51.57,-27.16 36.51,-61.31 -15.06,-34.15 -38.73,-101.88 84.3,-101.88 0,0 30.21,-3.81 30.21,30.2 0,24.84 -10.87,47.31 -36.97,36.97 -26.1,-10.35 -60.16,9.69 -38.32,30.2 25.55,23.99 41.42,37.56 -9.02,75.28 -23.25,17.4 45.07,20.18 52.75,39.68 7.68,19.49 -49.71,42.82 -20.29,42.82 29.43,0 68.13,0.45 68.13,0.45z"/>
    </g>
    <g>
     <path class="fil0" d="M201.49 178.13c0,0 -49.21,54.38 -65.69,16.65 -8.97,-20.54 -4.78,-40.19 -21.14,-38.7 -25.99,2.37 -13.28,27.48 -45,33.75 -31.71,6.27 -38,25.68 25.2,49.49 69.5,26.2 60.41,-22.46 112.03,-6.3 51.63,16.17 65.1,165.58 -76.04,165.58 -84.01,0 -98.98,-53.54 -98.98,-53.54 0,0 2.48,-40.94 43.64,-40.94 26.09,0 7.93,37.36 41.39,45.44 30.13,7.27 10.24,-32.58 50.85,-32.4 31.74,0.15 12.36,-74.03 -18.45,-44.54 -49.4,47.29 -48.91,-6.96 -87.29,-1.35 -47.85,7 -79.7,-58.12 -51.29,-79.19 34.77,-25.79 51.65,-33.69 62.09,-66.14 10.44,-32.45 76.61,-40.54 105.74,-2.25 29.12,38.29 22.94,54.44 22.94,54.44z"/>
    </g>
    <path class="fil0" d="M284.5 128.26c0,0 -88.47,43.81 -60.31,69.76 0,0 -7.93,20.18 4.95,30.16 12.88,9.98 31.09,19.6 36.01,46.35 4.91,26.75 101,36.48 135.01,-22.5l20.25 20.25 63.91 0 -52.65 -52.65c0,0 -6.5,-14.68 10.8,-28.36 17.3,-13.67 23.81,-57.91 13.05,-71.11 -10.76,-13.19 -38.78,-4.31 -50.41,0.45 -40.03,16.42 37.39,53.56 -2.25,66.16 -13.03,4.14 -25.98,-16.7 -30.6,-33.75 -4.62,-17.06 -25.2,-19.35 -25.2,-19.35 0,0 31.7,-17.4 44.1,-34.66 12.41,-17.25 -11.56,-21.02 1.8,-54.01 13.37,-32.98 0,-45 0,-45l-135.46 0c0,0 -34.2,64.74 -1.36,81.91 32.85,17.17 28.36,46.35 28.36,46.35zm21.6 24.31c0,0 -64.09,15.94 -29.25,35.55 11.05,6.22 34.2,8.49 27.45,42.76 -11.91,60.42 24.32,4.2 49.96,-1.35 42.08,-9.11 -11.27,-17.03 -7.2,-39.16 11.27,-61.32 -40.96,-37.8 -40.96,-37.8zm14.4 -44.56c0,0 12.26,-34.32 -18,-33.3 -30.26,1.02 -9.41,-27 9.9,-27 19.31,0 68.91,24.85 8.1,60.3z"/>
   </g>
   <g>
    <path class="fil1" d="M437.66 84.03c0,-6.98 -5.47,-12.44 -12.45,-12.44l-0.16 0c-6.98,0 -12.44,5.46 -12.44,12.44l0 0.16c0,6.98 5.46,12.44 12.44,12.44l0.16 0c6.98,0 12.45,-5.46 12.45,-12.44l0 -0.16zm-2.94 0l0 0 0 0.16c0,5.31 -4.2,9.51 -9.51,9.51l-0.16 0c-5.31,0 -9.51,-4.2 -9.51,-9.51l0 -0.16c0,-5.31 4.2,-9.51 9.51,-9.51l0.16 0c5.31,0 9.51,4.2 9.51,9.51zm-14.8 6.4l0 0 3.44 0 0 -4.13 1.67 0 2.25 4.13 3.86 0 -2.62 -4.69c1.36,-0.6 2.25,-2.02 2.25,-3.6l0 -0.02c0,-2.8 -1.83,-4.33 -5.07,-4.33l-5.78 0 0 12.64zm3.47 -6.78l0 0 0 -3.06 1.91 0c1.18,0 1.95,0.62 1.95,1.53 0,0.91 -0.75,1.53 -1.93,1.53l-1.93 0z"/>
   </g>
   <g>
    <path class="fil1" d="M262.58 335.69c2.48,0 3.99,-1.21 3.99,-3.12l0 -0.01c0,-1.62 -0.93,-2.49 -3.09,-2.95l-1.14 -0.24c-1.31,-0.28 -1.9,-0.76 -1.9,-1.54l0 -0.01c0,-0.91 0.82,-1.53 2.12,-1.54 1.24,0 2.08,0.59 2.23,1.56l0 0.1 1.58 0 0 -0.12c-0.11,-1.76 -1.61,-2.94 -3.79,-2.94 -2.21,0 -3.78,1.22 -3.79,3l0 0.01c0,1.55 0.99,2.5 3.04,2.93l1.14 0.24c1.39,0.31 1.96,0.76 1.96,1.6l0 0.01c0,0.98 -0.88,1.61 -2.28,1.61 -1.4,0 -2.37,-0.6 -2.51,-1.57l-0.02 -0.09 -1.58 0 0.01 0.11c0.13,1.84 1.68,2.96 4.03,2.96z"/>
   </g>
   <g>
    <path class="fil1" d="M271.11 335.66c2.18,0 3.62,-1.5 3.62,-3.96l0 -0.02c0,-2.44 -1.45,-3.94 -3.62,-3.94 -2.17,0 -3.62,1.51 -3.62,3.94l0 0.02c0,2.45 1.43,3.96 3.62,3.96zm0.01 -1.31l0 0c-1.23,0 -2.02,-0.96 -2.02,-2.65l0 -0.02c0,-1.66 0.8,-2.63 2.01,-2.63 1.22,0 2.02,0.97 2.02,2.63l0 0.02c0,1.68 -0.79,2.65 -2.01,2.65z"/>
   </g>
   <g>
    <path class="fil1" d="M279.22 335.66c1.83,0 3.11,-1.17 3.27,-2.7l0.01 -0.05 -1.51 0 -0.01 0.06c-0.18,0.82 -0.8,1.38 -1.76,1.38 -1.21,0 -2.02,-0.98 -2.02,-2.64l0 -0.01c0,-1.63 0.79,-2.65 2.01,-2.65 1.02,0 1.6,0.63 1.77,1.38l0.01 0.06 1.5 0 -0.01 -0.05c-0.13,-1.44 -1.32,-2.7 -3.29,-2.7 -2.17,0 -3.59,1.53 -3.59,3.94l0 0.01c0,2.44 1.39,3.97 3.62,3.97z"/>
   </g>
   <g>
    <path class="fil1" d="M284.45 326.71c0.52,0 0.92,-0.41 0.92,-0.9 0,-0.5 -0.4,-0.91 -0.92,-0.91 -0.5,0 -0.91,0.41 -0.91,0.91 0,0.49 0.41,0.9 0.91,0.9zm-0.78 8.8l0 0 1.57 0 0 -7.63 -1.57 0 0 7.63z"/>
   </g>
   <g>
    <path class="fil1" d="M289.09 335.65c1.01,0 1.9,-0.52 2.34,-1.34l0.03 0 0 1.2 1.57 0 0 -5.25c0,-1.53 -1.18,-2.52 -3.04,-2.52 -1.88,0 -3.02,1.01 -3.13,2.32l-0.01 0.08 1.48 0 0.02 -0.07c0.13,-0.6 0.69,-1.03 1.59,-1.03 0.97,0 1.52,0.51 1.52,1.35l0 0.57 -2.08 0.12c-1.8,0.11 -2.83,0.92 -2.83,2.25l0 0.01c0,1.38 1.02,2.31 2.54,2.31zm-0.96 -2.34l0 0 0 -0.02c0,-0.64 0.52,-1.05 1.46,-1.11l1.87 -0.12 0 0.6c0,0.99 -0.84,1.74 -1.94,1.74 -0.84,0 -1.39,-0.42 -1.39,-1.09z"/>
   </g>
   <g>
    <polygon class="fil1" points="294.6,335.51 296.17,335.51 296.17,325.05 294.6,325.05 "/>
   </g>
   <g>
    <polygon class="fil1" points="300.97,335.51 307.47,335.51 307.47,334.11 302.6,334.11 302.6,325.05 300.97,325.05 "/>
   </g>
   <g>
    <path class="fil1" d="M310.91 335.65c1.01,0 1.89,-0.52 2.33,-1.34l0.03 0 0 1.2 1.58 0 0 -5.25c0,-1.53 -1.18,-2.52 -3.05,-2.52 -1.88,0 -3.01,1.01 -3.12,2.32l-0.01 0.08 1.48 0 0.01 -0.07c0.13,-0.6 0.69,-1.03 1.6,-1.03 0.97,0 1.51,0.51 1.51,1.35l0 0.57 -2.07 0.12c-1.81,0.11 -2.83,0.92 -2.83,2.25l0 0.01c0,1.38 1.02,2.31 2.54,2.31zm-0.96 -2.34l0 0 0 -0.02c0,-0.64 0.52,-1.05 1.46,-1.11l1.86 -0.12 0 0.6c0,0.99 -0.83,1.74 -1.93,1.74 -0.84,0 -1.39,-0.42 -1.39,-1.09z"/>
   </g>
   <g>
    <path class="fil1" d="M320.41 335.66c1.94,0 3.19,-1.53 3.19,-3.96l0 -0.01c0,-2.43 -1.26,-3.95 -3.17,-3.95 -1.08,0 -1.95,0.54 -2.41,1.44l-0.04 0 0 -4.13 -1.56 0 0 10.46 1.56 0 0 -1.29 0.04 0c0.45,0.89 1.3,1.44 2.39,1.44zm-0.41 -1.34l0 0c-1.19,0 -2.02,-1.03 -2.02,-2.62l0 -0.01c0,-1.58 0.84,-2.61 2.02,-2.61 1.23,0 2,1 2,2.61l0 0.01c0,1.62 -0.77,2.62 -2,2.62z"/>
   </g>
   <g>
    <path class="fil1" d="M325.35 335.62c0.53,0 0.95,-0.42 0.95,-0.95 0,-0.54 -0.42,-0.95 -0.95,-0.95 -0.54,0 -0.96,0.41 -0.96,0.95 0,0.53 0.42,0.95 0.96,0.95z"/>
   </g>
   <g>
    <path class="fil1" d="M255.05 353.46c1.01,0 1.89,-0.52 2.34,-1.34l0.02 0 0 1.2 1.58 0 0 -5.25c0,-1.53 -1.18,-2.52 -3.05,-2.52 -1.87,0 -3.01,1.01 -3.12,2.32l-0.01 0.08 1.48 0 0.01 -0.06c0.13,-0.61 0.69,-1.04 1.6,-1.04 0.97,0 1.51,0.51 1.51,1.35l0 0.57 -2.07 0.12c-1.8,0.11 -2.83,0.92 -2.83,2.25l0 0.02c0,1.37 1.02,2.3 2.54,2.3zm-0.96 -2.34l0 0 0 -0.01c0,-0.65 0.52,-1.06 1.46,-1.12l1.86 -0.12 0 0.6c0,0.99 -0.83,1.74 -1.93,1.74 -0.84,0 -1.39,-0.42 -1.39,-1.09z"/>
   </g>
   <g>
    <polygon class="fil1" points="260.56,353.32 262.12,353.32 262.12,342.86 260.56,342.86 "/>
   </g>
   <g>
    <polygon class="fil1" points="263.79,353.32 265.36,353.32 265.36,342.86 263.79,342.86 "/>
   </g>
   <g>
    <path class="fil1" d="M269.97 353.32l1.57 0 0 -4.54c0,-1.14 0.62,-1.8 1.63,-1.8 0.31,0 0.58,0.04 0.7,0.09l0 -1.46c-0.12,-0.02 -0.32,-0.06 -0.54,-0.06 -0.87,0 -1.51,0.56 -1.75,1.45l-0.04 0 0 -1.3 -1.57 0 0 7.62z"/>
   </g>
   <g>
    <path class="fil1" d="M275.69 344.52c0.52,0 0.92,-0.4 0.92,-0.9 0,-0.5 -0.4,-0.9 -0.92,-0.9 -0.51,0 -0.91,0.4 -0.91,0.9 0,0.5 0.4,0.9 0.91,0.9zm-0.78 8.8l0 0 1.57 0 0 -7.62 -1.57 0 0 7.62z"/>
   </g>
   <g>
    <path class="fil1" d="M281.43 356.01c2.16,0 3.51,-1.16 3.51,-2.9l0 -7.41 -1.58 0 0 1.29 -0.03 0c-0.45,-0.86 -1.29,-1.44 -2.37,-1.44 -1.93,0 -3.21,1.5 -3.21,3.9l0 0c0,2.38 1.26,3.88 3.18,3.88 1.09,0 1.96,-0.53 2.4,-1.35l0.03 0 0 1.04c0,1.07 -0.69,1.73 -1.93,1.73 -0.98,0 -1.64,-0.33 -1.85,-0.82l-0.03 -0.06 -1.55 0 0 0.07c0.24,1.17 1.48,2.07 3.43,2.07zm-0.06 -3.95l0 0c-1.24,0 -2.02,-0.99 -2.02,-2.59l0 0c0,-1.58 0.78,-2.58 2.02,-2.58 1.19,0 1.99,1.01 1.99,2.58l0 0c0,1.58 -0.8,2.59 -1.99,2.59z"/>
   </g>
   <g>
    <path class="fil1" d="M286.53 353.32l1.57 0 0 -4.41c0,-1.19 0.72,-2.02 1.8,-2.02 1.1,0 1.74,0.76 1.74,2.02l0 4.41 1.56 0 0 -4.71c0,-1.84 -1.07,-3.06 -2.7,-3.06 -1.14,0 -1.96,0.52 -2.36,1.4l-0.04 0 0 -4.09 -1.57 0 0 10.46z"/>
   </g>
   <g>
    <path class="fil1" d="M297.39 353.48c0.32,0 0.62,-0.04 0.8,-0.07l0 -1.21c-0.12,0.02 -0.25,0.03 -0.42,0.03 -0.66,0 -1.01,-0.23 -1.01,-1.01l0 -4.28 1.43 0 0 -1.24 -1.43 0 0 -1.99 -1.6 0 0 1.99 -1.09 0 0 1.24 1.09 0 0 4.38c0,1.52 0.73,2.16 2.23,2.16z"/>
   </g>
   <g>
    <path class="fil1" d="M302.49 353.32l1.56 0 0 -4.54c0,-1.14 0.63,-1.8 1.63,-1.8 0.31,0 0.59,0.04 0.71,0.09l0 -1.46c-0.12,-0.02 -0.32,-0.06 -0.55,-0.06 -0.87,0 -1.5,0.56 -1.75,1.45l-0.04 0 0 -1.3 -1.56 0 0 7.62z"/>
   </g>
   <g>
    <path class="fil1" d="M310.29 353.48c1.85,0 3.02,-1.11 3.27,-2.32l0.01 -0.08 -1.48 0 -0.03 0.06c-0.19,0.58 -0.81,1.05 -1.74,1.05 -1.24,0 -2.03,-0.84 -2.06,-2.28l5.4 0 0 -0.53c0,-2.29 -1.31,-3.83 -3.45,-3.83 -2.14,0 -3.52,1.6 -3.52,3.98l0 0.01c0,2.41 1.36,3.94 3.6,3.94zm-0.08 -6.64l0 0c1.03,0 1.77,0.64 1.9,1.96l-3.83 0c0.14,-1.28 0.92,-1.96 1.93,-1.96z"/>
   </g>
   <g>
    <path class="fil1" d="M317.72 353.48c1.8,0 3.11,-0.96 3.11,-2.35l0 -0.01c0,-1.09 -0.6,-1.71 -2.16,-2.07l-1.24 -0.29c-0.82,-0.19 -1.13,-0.51 -1.13,-0.98l0 -0.01c0,-0.61 0.53,-1.01 1.37,-1.01 0.89,0 1.41,0.47 1.5,1.13l0.01 0.06 1.47 0 0 -0.09c-0.08,-1.3 -1.17,-2.31 -2.98,-2.31 -1.75,0 -2.94,0.94 -2.94,2.3l0 0.01c0,1.11 0.72,1.8 2.17,2.14l1.24 0.28c0.82,0.2 1.1,0.48 1.1,0.97l0 0.01c0,0.61 -0.57,1.01 -1.51,1.01 -0.96,0 -1.49,-0.42 -1.63,-1.12l-0.02 -0.07 -1.55 0 0.01 0.06c0.16,1.39 1.28,2.34 3.18,2.34z"/>
   </g>
   <g>
    <path class="fil1" d="M325.29 353.48c1.85,0 3.02,-1.11 3.27,-2.32l0.01 -0.08 -1.48 0 -0.02 0.06c-0.2,0.58 -0.82,1.05 -1.74,1.05 -1.25,0 -2.04,-0.84 -2.07,-2.28l5.4 0 0 -0.53c0,-2.29 -1.31,-3.83 -3.45,-3.83 -2.14,0 -3.52,1.6 -3.52,3.98l0 0.01c0,2.41 1.36,3.94 3.6,3.94zm-0.07 -6.64l0 0c1.02,0 1.76,0.64 1.89,1.96l-3.83 0c0.14,-1.28 0.92,-1.96 1.94,-1.96z"/>
   </g>
   <g>
    <path class="fil1" d="M329.87 353.32l1.57 0 0 -4.54c0,-1.14 0.62,-1.8 1.63,-1.8 0.3,0 0.58,0.04 0.7,0.09l0 -1.46c-0.12,-0.02 -0.32,-0.06 -0.54,-0.06 -0.87,0 -1.51,0.56 -1.76,1.45l-0.03 0 0 -1.3 -1.57 0 0 7.62z"/>
   </g>
   <g>
    <polygon class="fil1" points="336.84,353.32 338.52,353.32 341.25,345.7 339.62,345.7 337.71,351.79 337.67,351.79 335.75,345.7 334.09,345.7 "/>
   </g>
   <g>
    <path class="fil1" d="M345.12 353.48c1.85,0 3.02,-1.11 3.27,-2.32l0.01 -0.08 -1.48 0 -0.02 0.06c-0.2,0.58 -0.81,1.05 -1.74,1.05 -1.25,0 -2.04,-0.84 -2.07,-2.28l5.4 0 0 -0.53c0,-2.29 -1.31,-3.83 -3.45,-3.83 -2.14,0 -3.52,1.6 -3.52,3.98l0 0.01c0,2.41 1.36,3.94 3.6,3.94zm-0.07 -6.64l0 0c1.02,0 1.76,0.64 1.89,1.96l-3.83 0c0.14,-1.28 0.92,-1.96 1.94,-1.96z"/>
   </g>
   <g>
    <path class="fil1" d="M352.55 353.48c1.09,0 1.94,-0.56 2.39,-1.45l0.03 0 0 1.29 1.57 0 0 -10.46 -1.57 0 0 4.13 -0.03 0c-0.45,-0.89 -1.33,-1.44 -2.41,-1.44 -1.91,0 -3.17,1.53 -3.17,3.95l0 0.01c0,2.43 1.25,3.97 3.19,3.97zm0.41 -1.35l0 0c-1.24,0 -2,-1 -2,-2.62l0 -0.01c0,-1.61 0.77,-2.61 2,-2.61 1.18,0 2.02,1.03 2.02,2.61l0 0.01c0,1.59 -0.84,2.62 -2.02,2.62z"/>
   </g>
   <g>
    <path class="fil1" d="M258.05 365.87c0,-3.18 -2.5,-5.69 -5.69,-5.69l-0.06 0c-3.19,0 -5.69,2.51 -5.69,5.69l0 0.07c0,3.18 2.5,5.69 5.69,5.69l0.06 0c3.19,0 5.69,-2.51 5.69,-5.69l0 -0.07zm-0.98 0l0 0 0 0.07c0,2.64 -2.08,4.7 -4.71,4.7l-0.06 0c-2.64,0 -4.72,-2.06 -4.72,-4.7l0 -0.07c0,-2.64 2.08,-4.7 4.72,-4.7l0.06 0c2.63,0 4.71,2.06 4.71,4.7zm-4.65 2.57l0 0c1.28,0 2.21,-0.82 2.28,-1.93l0 -0.03 -1.14 0 -0.01 0.03c-0.11,0.55 -0.53,0.89 -1.12,0.89 -0.78,0 -1.27,-0.56 -1.27,-1.5 0,-0.93 0.49,-1.48 1.26,-1.48 0.62,0 1.02,0.37 1.12,0.87l0.02 0.05 1.14 0 0 -0.03c-0.07,-1.1 -0.98,-1.94 -2.28,-1.94 -1.51,0 -2.47,0.94 -2.47,2.53l0 0.01c0,1.59 0.95,2.53 2.47,2.53z"/>
   </g>
   <g>
    <path class="fil1" d="M262.45 371.14l7.16 0 0 -1.37 -4.98 0 0 -0.07 2.37 -2.33c1.88,-1.86 2.44,-2.71 2.44,-3.9l0 -0.02c0,-1.69 -1.44,-2.95 -3.44,-2.95 -2.05,0 -3.64,1.36 -3.64,3.23l0 0.04 1.54 0 0 -0.04c0.01,-1.06 0.89,-1.89 2.12,-1.89 1.06,0 1.81,0.71 1.82,1.71l0 0.01c0,0.81 -0.31,1.36 -1.71,2.76l-3.68 3.7 0 1.12z"/>
   </g>
   <g>
    <path class="fil1" d="M274.85 371.31c2.5,0 4,-2.08 4,-5.4l0 -0.01c0,-3.33 -1.5,-5.4 -4,-5.4 -2.5,0 -3.99,2.07 -3.99,5.4l0 0.01c0,3.32 1.49,5.4 3.99,5.4zm0 -1.35l0 0c-1.49,0 -2.35,-1.54 -2.35,-4.05l0 -0.01c0,-2.51 0.86,-4.04 2.35,-4.04 1.49,0 2.36,1.53 2.36,4.04l0 0.01c0,2.51 -0.87,4.05 -2.36,4.05z"/>
   </g>
   <g>
    <path class="fil1" d="M280.18 371.14l7.15 0 0 -1.37 -4.98 0 0 -0.07 2.38 -2.33c1.88,-1.86 2.44,-2.71 2.44,-3.9l0 -0.02c0,-1.69 -1.44,-2.95 -3.45,-2.95 -2.04,0 -3.63,1.36 -3.63,3.23l0 0.04 1.54 0 0 -0.04c0.01,-1.06 0.89,-1.89 2.12,-1.89 1.05,0 1.81,0.71 1.82,1.71l0 0.01c0,0.81 -0.32,1.36 -1.71,2.76l-3.68 3.7 0 1.12z"/>
   </g>
   <g>
    <path class="fil1" d="M292.58 371.31c2.49,0 4,-2.08 4,-5.4l0 -0.01c0,-3.33 -1.51,-5.4 -4,-5.4 -2.5,0 -3.99,2.07 -3.99,5.4l0 0.01c0,3.32 1.49,5.4 3.99,5.4zm0 -1.35l0 0c-1.49,0 -2.36,-1.54 -2.36,-4.05l0 -0.01c0,-2.51 0.87,-4.04 2.36,-4.04 1.49,0 2.36,1.53 2.36,4.04l0 0.01c0,2.51 -0.87,4.05 -2.36,4.05z"/>
   </g>
  </g>
 </g>
</svg>
